<svg xmlns="http://www.w3.org/2000/svg" viewBox="0 0 512 512">
  <defs>
    <radialGradient id="bg" cx="0.5" cy="0.45" r="0.6">
      <stop offset="0%" stop-color="#8b2132" stop-opacity="0.95"/>
      <stop offset="100%" stop-color="#1a060a" stop-opacity="0.2"/>
    </radialGradient>
    <linearGradient id="gold" x1="0" y1="0" x2="1" y2="1">
      <stop offset="0%" stop-color="#f8e6b0"/>
      <stop offset="100%" stop-color="#c39244"/>
    </linearGradient>
    <filter id="glow" x="-30%" y="-30%" width="160%" height="160%">
      <feDropShadow dx="0" dy="0" stdDeviation="16" flood-color="#ffcf7e" flood-opacity="0.35"/>
    </filter>
  </defs>
  <rect width="512" height="512" fill="none"/>
  <circle cx="256" cy="256" r="176" fill="url(#bg)"/>
  <g filter="url(#glow)">
    <path d="M256 92l38 48 58-18-12 58 52 30-48 30 12 58-58-18-42 54-42-54-58 18 12-58-48-30 52-30-12-58 58 18z" fill="none" stroke="url(#gold)" stroke-width="18" stroke-linejoin="round"/>
    <path d="M196 330c0-52 26-102 60-102s60 50 60 102" fill="none" stroke="url(#gold)" stroke-width="18" stroke-linecap="round"/>
    <circle cx="228" cy="214" r="14" fill="url(#gold)"/>
    <circle cx="284" cy="214" r="14" fill="url(#gold)"/>
    <path d="M224 270c20 16 44 16 64 0" fill="none" stroke="url(#gold)" stroke-width="14" stroke-linecap="round"/>
    <path d="M176 152l34-44 46 22 46-22 34 44" fill="none" stroke="url(#gold)" stroke-width="18" stroke-linecap="round" stroke-linejoin="round"/>
  </g>
</svg>
