<svg xmlns="http://www.w3.org/2000/svg" viewBox="0 0 128 128">
  <defs>
    <radialGradient id="bg" cx="50%" cy="40%" r="60%">
      <stop offset="0%" stop-color="#c65a63"/>
      <stop offset="100%" stop-color="#631d29"/>
    </radialGradient>
  </defs>
  <ellipse cx="64" cy="110" rx="34" ry="10" fill="#17090c" opacity="0.35"/>
  <path d="M26 78c5-30 25-48 38-48s33 18 38 48c-11 18-27 28-38 28S37 96 26 78Z" fill="url(#bg)"/>
  <path d="M44 34l20-14 20 14-6 26H50z" fill="#2f1020"/>
  <circle cx="49" cy="68" r="8" fill="#fff6ef"/>
  <circle cx="79" cy="68" r="8" fill="#fff6ef"/>
  <circle cx="49" cy="69" r="3" fill="#181216"/>
  <circle cx="79" cy="69" r="3" fill="#181216"/>
  <path d="M50 88c8 5 20 5 28 0" fill="none" stroke="#ffd4cf" stroke-width="4" stroke-linecap="round"/>
  <path d="M56 88l-4 10M72 88l4 10" stroke="#fff2ed" stroke-width="4" stroke-linecap="round"/>
  <path d="M38 48l-12-9M90 48l12-9" stroke="#f2d6db" stroke-width="5" stroke-linecap="round"/>
  <path d="M31 81c7 20 20 30 33 30 14 0 27-10 34-30" fill="#4b1220" opacity="0.72"/>
</svg>
