<svg xmlns="http://www.w3.org/2000/svg" viewBox="0 0 128 128">
  <ellipse cx="64" cy="114" rx="39" ry="11" fill="#10180c" opacity="0.34"/>
  <path d="M30 95c0-28 14-63 34-63s34 35 34 63c-7 11-21 18-34 18S37 106 30 95Z" fill="#5e7e44"/>
  <path d="M48 27l16-17 16 17-5 16H53z" fill="#84a958"/>
  <path d="M45 63c4-8 12-12 19-12 8 0 16 4 20 12" fill="none" stroke="#3d5230" stroke-width="8" stroke-linecap="round"/>
  <circle cx="53" cy="66" r="6" fill="#dff2bc"/>
  <circle cx="75" cy="66" r="6" fill="#dff2bc"/>
  <circle cx="53" cy="66" r="2.5" fill="#1d2618"/>
  <circle cx="75" cy="66" r="2.5" fill="#1d2618"/>
  <path d="M52 84c7 5 17 5 24 0" fill="none" stroke="#2e3f26" stroke-width="4" stroke-linecap="round"/>
  <path d="M28 86c-7 4-4 16 5 16M100 86c7 4 4 16-5 16" fill="none" stroke="#8eb660" stroke-width="6" stroke-linecap="round"/>
</svg>
