<svg xmlns="http://www.w3.org/2000/svg" viewBox="0 0 900 1200">
  <defs>
    <linearGradient id="bg" x1="0" y1="0" x2="0" y2="1">
      <stop offset="0%" stop-color="#1d160f"/>
      <stop offset="100%" stop-color="#090705"/>
    </linearGradient>
    <linearGradient id="robe" x1="0" y1="0" x2="1" y2="1">
      <stop offset="0%" stop-color="#f6edd7"/>
      <stop offset="100%" stop-color="#c6a96d"/>
    </linearGradient>
    <linearGradient id="sash" x1="0" y1="0" x2="1" y2="1">
      <stop offset="0%" stop-color="#7d0018"/>
      <stop offset="100%" stop-color="#d21d37"/>
    </linearGradient>
    <linearGradient id="gold" x1="0" y1="0" x2="1" y2="1">
      <stop offset="0%" stop-color="#f8e4a2"/>
      <stop offset="100%" stop-color="#9d6e13"/>
    </linearGradient>
    <radialGradient id="glow" cx="50%" cy="18%" r="60%">
      <stop offset="0%" stop-color="rgba(255,225,154,0.55)"/>
      <stop offset="100%" stop-color="rgba(255,225,154,0)"/>
    </radialGradient>
    <filter id="shadow" x="-20%" y="-20%" width="140%" height="140%">
      <feDropShadow dx="0" dy="16" stdDeviation="18" flood-color="#000" flood-opacity="0.45"/>
    </filter>
  </defs>
  <rect width="900" height="1200" fill="url(#bg)"/>
  <rect width="900" height="1200" fill="url(#glow)"/>
  <g opacity="0.22">
    <path d="M50 120C170 30 310 10 430 70s210 74 380 42v300c-144 64-270 50-392-6S192 320 50 406Z" fill="#64411f"/>
    <path d="M90 220c70-26 126-14 170 22 28 24 44 62 16 90-30 32-90 30-132 6-46-24-80-76-54-118Z" fill="#8a6236"/>
    <path d="M632 184c88-42 168-16 206 42 18 28 22 70-10 98-44 38-124 28-172-10-48-38-72-94-24-130Z" fill="#8a6236"/>
  </g>
  <g filter="url(#shadow)">
    <ellipse cx="450" cy="1080" rx="220" ry="54" fill="rgba(0,0,0,0.42)"/>
    <path d="M278 734c26-90 100-162 178-162s152 72 178 162l48 286H230Z" fill="url(#robe)"/>
    <path d="M290 746c118 10 190 18 324 8l-24 340H306Z" fill="#f0e2c5" opacity="0.82"/>
    <path d="M272 750c138 8 252 64 354 190l-48 156H320l-70-176Z" fill="url(#sash)" opacity="0.96"/>
    <rect x="286" y="854" width="328" height="78" rx="34" fill="url(#gold)"/>
    <path d="M340 662c22-72 62-118 110-138 48 20 88 66 110 138v120H340Z" fill="#f3e6cc"/>
    <ellipse cx="450" cy="480" rx="126" ry="148" fill="#d8b086"/>
    <path d="M342 520c18 126 66 210 108 210s90-84 108-210c-42 54-86 76-108 76s-66-22-108-76Z" fill="#f5d6b5"/>
    <path d="M316 448c22-78 78-148 134-148 56 0 112 70 134 148-44-18-94-28-134-28s-90 10-134 28Z" fill="#1d1817"/>
    <path d="M360 582c18 82 56 172 90 172 34 0 72-90 90-172-26 10-56 18-90 18s-64-8-90-18Z" fill="#201615"/>
    <path d="M364 606c24 106 58 186 86 186 28 0 62-80 86-186-28 12-56 18-86 18s-58-6-86-18Z" fill="#261816"/>
    <ellipse cx="404" cy="486" rx="12" ry="10" fill="#1f120e"/>
    <ellipse cx="496" cy="486" rx="12" ry="10" fill="#1f120e"/>
    <path d="M414 546c20 12 52 12 72 0" fill="none" stroke="#6b3022" stroke-width="10" stroke-linecap="round"/>
    <path d="M380 438c20-18 44-24 66-18" fill="none" stroke="#291d18" stroke-width="10" stroke-linecap="round"/>
    <path d="M454 420c20-8 46-2 68 18" fill="none" stroke="#291d18" stroke-width="10" stroke-linecap="round"/>
    <g transform="translate(450 230)">
      <path d="M-140 110-92 24-34 72 0-22 38 72 94 20 142 110 102 150H-104Z" fill="url(#gold)" stroke="#e7c969" stroke-width="10"/>
      <circle cx="0" cy="28" r="28" fill="#c0302d" stroke="#f8e5a2" stroke-width="10"/>
      <circle cx="-74" cy="66" r="18" fill="#2448b8" stroke="#f8e5a2" stroke-width="8"/>
      <circle cx="76" cy="64" r="18" fill="#2448b8" stroke="#f8e5a2" stroke-width="8"/>
      <circle cx="-114" cy="128" r="16" fill="#b8292b" stroke="#f8e5a2" stroke-width="8"/>
      <circle cx="112" cy="128" r="16" fill="#b8292b" stroke="#f8e5a2" stroke-width="8"/>
      <path d="M-124 24-98-34-72 24M-16-28 0-80 16-28M72 24 98-34 124 24" fill="none" stroke="#f8e5a2" stroke-width="10" stroke-linecap="round"/>
    </g>
    <g opacity="0.72">
      <path d="M296 828c52-44 94-62 154-66" fill="none" stroke="#b7892f" stroke-width="14" stroke-linecap="round"/>
      <path d="M594 824c-52-44-94-62-154-66" fill="none" stroke="#b7892f" stroke-width="14" stroke-linecap="round"/>
    </g>
  </g>
</svg>
