<svg xmlns="http://www.w3.org/2000/svg" viewBox="0 0 128 128">
  <ellipse cx="64" cy="114" rx="34" ry="10" fill="#0d1218" opacity="0.34"/>
  <path d="M38 108c2-27 9-48 26-48s24 21 26 48" fill="#234b7a"/>
  <path d="M44 36l20-18 20 18-5 24H49z" fill="#9cc7ff"/>
  <path d="M52 26l12-10 12 10-4 10H56z" fill="#eaf6ff"/>
  <circle cx="64" cy="54" r="18" fill="#ecd1b2"/>
  <circle cx="56" cy="53" r="4.5" fill="#10171f"/>
  <circle cx="72" cy="53" r="4.5" fill="#10171f"/>
  <path d="M57 64c4 3 10 3 14 0" fill="none" stroke="#6b4432" stroke-width="3.5" stroke-linecap="round"/>
  <path d="M45 70h38v26H45z" fill="#c3e0ff"/>
  <path d="M52 70h24v26H52z" fill="#1f2f45"/>
  <path d="M41 74l-14 18 11 8 15-16" fill="#95bdf3"/>
  <path d="M87 74l14 18-11 8-15-16" fill="#95bdf3"/>
  <path d="M94 72l11 28-7 4-15-25" fill="#d7ebff"/>
  <path d="M101 96l8 6" stroke="#8adfff" stroke-width="4" stroke-linecap="round"/>
  <path d="M36 77l-7 28M92 77l7 28" stroke="#3f536d" stroke-width="6" stroke-linecap="round"/>
  <path d="M57 28h14l-2 8H59z" fill="#4da8ff"/>
</svg>
